<?xml version="1.0" encoding="UTF-8" standalone="no"?><!DOCTYPE svg PUBLIC "-//W3C//DTD SVG 1.1//EN" "http://www.w3.org/Graphics/SVG/1.1/DTD/svg11.dtd">
<svg width="100%" height="100%" viewBox="0 0 142 142" version="1.1" xmlns="http://www.w3.org/2000/svg"
     xml:space="preserve"
     style="fill-rule:evenodd;clip-rule:evenodd;stroke-linejoin:round;stroke-miterlimit:1.41421;"><path d="M70.851,8.126c-34.587,0 -62.725,28.138 -62.725,62.725c0,34.585 28.138,62.723 62.725,62.723c34.585,0 62.723,-28.138 62.723,-62.723c0,-34.587 -28.138,-62.725 -62.723,-62.725Zm0,120.122c-31.651,0 -57.399,-25.751 -57.399,-57.397c0,-31.651 25.748,-57.399 57.399,-57.399c31.646,0 57.397,25.748 57.397,57.399c0,31.646 -25.751,57.397 -57.397,57.397Z" style="fill:#262626;fill-rule:nonzero;"/><path d="M97.624,70.909l-53.259,0c-1.472,0 -2.663,1.191 -2.663,2.662c0,1.472 1.191,2.666 2.663,2.666l53.259,0c1.472,0 2.663,-1.194 2.663,-2.666c0,-1.471 -1.191,-2.662 -2.663,-2.662Z" style="fill:#262626;fill-rule:nonzero;"/><path d="M97.624,54.928l-53.259,0c-1.472,0 -2.663,1.191 -2.663,2.663c0,1.472 1.191,2.663 2.663,2.663l53.259,0c1.472,0 2.663,-1.191 2.663,-2.663c0,-1.472 -1.191,-2.663 -2.663,-2.663Z" style="fill:#262626;fill-rule:nonzero;"/><path d="M97.624,86.889l-53.259,0c-1.472,0 -2.663,1.191 -2.663,2.663c0,1.472 1.191,2.663 2.663,2.663l53.259,0c1.472,0 2.663,-1.191 2.663,-2.663c0,-1.472 -1.191,-2.663 -2.663,-2.663Z" style="fill:#262626;fill-rule:nonzero;"/></svg>